<svg id="Layer_1" data-name="Layer 1" xmlns="http://www.w3.org/2000/svg" viewBox="0 0 590.18 111.04"><defs><style>.cls-1{fill:#f7f1ea;}</style></defs><g id="Layer_2" data-name="Layer 2"><g id="Layer_1-2" data-name="Layer 1-2"><path class="cls-1" d="M0,4.85H24.32L35.32,36c2.31,6.6,4.51,13,6.6,19.36h.22c2.2-6.49,4.62-13.31,6.93-19.58L60.4,4.85H83.72L53.25,84.49H30.48Z"/><path class="cls-1" d="M99.67,1a11.4,11.4,0,1,1-.09,0ZM88.78,30.37h21.78V84.49H88.78Z"/><path class="cls-1" d="M121.33,64.25c8.36,4.51,18,6.27,22.22,6.27,2.64,0,4-.66,4-2.2,0-3-4.84-2.31-13-4.62-10.45-3-15.18-8-15.18-15.84.11-11.66,10.89-18.7,25.19-18.7a61.09,61.09,0,0,1,22.22,4.4V50.5c-8.36-4.4-17.38-6.16-21.45-6.16-2.64,0-3.74.77-3.74,2.09,0,2.75,4.51,2.09,12.76,4.4,10.45,3,15.4,7.59,15.4,15.84-.11,12.1-11.22,19-25.85,19-6.38,0-15.51-1.32-22.55-4.51Z"/><path class="cls-1" d="M188.54,1a11.4,11.4,0,1,1-.09,0ZM177.65,30.37h21.78V84.49H177.65Z"/><path class="cls-1" d="M249.48,83.06A35,35,0,0,1,236,85.7c-6.71,0-12.43-2.09-15.95-5.61C217,77,214.77,72.39,214.77,63V47.53h-8V30.37h8V16.84L236.5,13.1V30.37h13V47.53h-13v14c0,4.29,1.32,6.71,5.39,6.71a23.08,23.08,0,0,0,7.59-1.76Z"/><path class="cls-1" d="M285,4.85h22.88c16.5,0,28.93,2.75,37.4,9.13,8.8,6.6,13.64,17.38,13.64,30.8,0,11.88-3.74,21.78-11.33,28.71-7.92,7.15-20.13,11-39.27,11H285Zm23.54,60.5c14.41,0,20.24-2.86,23.65-6.93,3-3.63,4.07-8.47,4.07-13.64,0-7.48-2.31-12.87-6.82-16.28-4.84-3.63-12.1-4.51-21-4.51h-.77V65.35Z"/><path class="cls-1" d="M378.84,1a11.4,11.4,0,1,1-.09,0ZM368,30.37h21.78V84.49H368Z"/><path class="cls-1" d="M451.55,81.52c-5.72,2.64-13.75,4.18-21.12,4.18-19.14,0-32.23-10.56-32.23-27.7,0-17.82,14-28.82,29.37-28.82,13.31,0,27.06,8.25,27.06,27.72a42.08,42.08,0,0,1-.33,5.5h-34c2.09,5.72,7.26,7.7,13.09,7.7A39.52,39.52,0,0,0,451.55,65Zm-16.5-30.36c-1-4.95-4.4-6.6-7.59-6.6-3.85,0-6.49,2.42-7.48,6.6Z"/><path class="cls-1" d="M468.71,87.24c5.83,3.41,12.54,5.39,18,5.39,6.93,0,10.78-3.08,10.78-9.9V80.42l-.22-.22c-3,2.31-7.7,3.3-11.55,3.3C473.55,83.5,461,73.93,461,57.43c0-16.17,12.21-28.27,28.82-28.27a31.42,31.42,0,0,1,13.64,3.08l15.84-2.75V83c0,17.6-12.76,27-30.8,27a50.19,50.19,0,0,1-19.8-3.85Zm28.82-39.82a11.21,11.21,0,0,0-4.84-1c-7.26,0-9.68,5.28-9.68,10.34,0,6.16,3.41,10.45,9.24,10.45A13.23,13.23,0,0,0,497.53,66Z"/><path class="cls-1" d="M528.89,62.77a25.49,25.49,0,0,1,11.64-5,23.78,23.78,0,0,1,6.74,0,38.43,38.43,0,0,1,6.16,1.5c2,.61,3.75,1.36,5.54,2s3.44,1.45,5.1,2.09l2.46,1,1.21.45,1.21.39a38.14,38.14,0,0,0,4.79,1.31c.79.21,1.59.27,2.39.42s1.6.14,2.42.24,1.66,0,2.49.06a16.66,16.66,0,0,0,2.54-.07c1.41-.1,2.83-.27,4.25-.49A27.51,27.51,0,0,0,589.25,58c0-15.72-12.9-27.86-30.78-27.86S527.68,42.26,527.68,58a27.38,27.38,0,0,0,.52,5.34Z"/><path class="cls-1" d="M581.88,75.62c-1,.15-2.08.32-3.14.41a24.85,24.85,0,0,1-3.23.1c-1.07,0-2.16-.06-3.21-.2a42.39,42.39,0,0,1-6.21-1.24c-1-.28-2-.59-2.93-.94s-1.9-.68-2.82-1c-1.84-.76-3.58-1.53-5.3-2.32s-3.33-1.54-4.9-2.23-3.14-1.28-4.64-1.8c-.75-.17-1.51-.42-2.24-.52l-1.12-.2c-.37-.06-.75-.05-1.14-.08a26.34,26.34,0,0,0-9.8,1.48c-.58.19-1.16.41-1.74.63,4.12,10.73,15,18.13,29,18.13,10.28,0,18.91-4,24.39-10.43C582.54,75.49,582.21,75.56,581.88,75.62Z"/></g></g></svg>